<?xml version="1.0" encoding="utf-8"?>
<!-- Generator: Adobe Illustrator 19.1.0, SVG Export Plug-In . SVG Version: 6.00 Build 0)  -->
<svg version="1.1" id="Layer_1" xmlns="http://www.w3.org/2000/svg" xmlns:xlink="http://www.w3.org/1999/xlink" x="0px" y="0px"
	 viewBox="0 0 221.2 224" style="enable-background:new 0 0 221.2 224;" xml:space="preserve">
<style type="text/css">
	.st0{fill:#CAAC88;}
	.st1{fill:#A88B73;}
	.st2{fill:#8E7461;}
	.st3{fill:#B59674;}
	.st4{fill:none;stroke:#B59674;stroke-miterlimit:10;}
	.st5{fill:#AD9371;}
	.st6{fill:#DDB890;}
	.st7{fill:#D8C4B2;}
	.st8{fill:none;stroke:#000000;stroke-miterlimit:10;}
	.st9{fill:#3F2E24;}
	.st10{fill:#5E4231;}
	.st11{fill:#5B371E;}
	.st12{fill:#FBE3C8;}
	.st13{fill:#724D31;}
	.st14{fill:#443F41;}
	.st15{fill:#7F1C19;}
	.st16{fill:#969696;}
</style>
<path class="st0" d="M96.2,169.8c-0.3,0-0.7,0-1,0.1l0,0c-1.7-1.4-4.2-1.3-5.6,0.4c0,0-4.5,5.1-5.9,6.9c-1.4,1.6-2.9,3.6-3.1,5.7
	c-0.2,2.5,0.7,4.9,2.8,6.6c2.4-4.4,6.6-6.9,10.9-9.4c-0.5,1.6-1.4,3.3-2.2,5.1c3.5-4.6,4.5-9.9,4.7-15.3L96.2,169.8z"/>
<path class="st0" d="M132.4,170.8c-1.4-1.7-4-1.9-5.6-0.4l0,0c-0.3-0.1-0.7-0.1-1-0.1l-29.9,0c-0.4,0-0.8,0.1-1.1,0.1
	c-1.2,3.8-1.4,6.2-2.1,8.4c-1.2,3.6-1,6.1-1.6,8.9c0,0.2-0.6,4.3-0.9,5.6c-0.1,0.7-0.2,1.8-0.2,2.9c1.2,0.7,2.4,1.2,3.6,1.7
	c10.1,4.4,21.7,4.6,32.5,1.5c1.9-0.5,3.8-1.2,5.7-1.9c0.1-1.6,0-3.1-0.2-4.2c-0.3-1.5-0.5-3.5-0.6-5.8c0-0.1-0.1-0.1-0.1-0.2
	c-1-2.5-2.2-4.7-3-6.9c4.2,2.5,8.5,5.1,10.9,9.4c2.1-1.7,3-4.1,2.8-6.6c-0.2-2.1-1.7-4.1-3.1-5.7C136.9,176,132.4,170.8,132.4,170.8
	z"/>
<g>
	<path class="st1" d="M102.2,184.9c0,0.7-0.6,1.2-1.4,1.2h-5.3c-0.7,0-1.4-0.5-1.4-1.2v-5c0-0.7,0.6-1.2,1.4-1.2h5.3
		c0.7,0,1.4,0.5,1.4,1.2V184.9z"/>
	<polygon class="st2" points="97.4,181.6 98.2,185.4 99.1,181.6 	"/>
	<rect x="94.2" y="180.6" class="st2" width="7.9" height="1.1"/>
</g>
<path class="st3" d="M127.7,180.6c0.7,2.2,2,4.4,3,7c0,0,0-0.1,0-0.1l2,3.6c1.2-0.6,4.7-0.2,5.8-1.1
	C136.2,185.6,132,183.1,127.7,180.6z"/>
<line class="st4" x1="110.7" y1="184.7" x2="110.7" y2="201.5"/>
<path class="st5" d="M90.5,210l-0.9,7.1c4.8,2,11.9,2.1,16.7,0.5l-0.4-6.7C101.7,208.3,94.7,206,90.5,210z"/>
<path class="st5" d="M131.6,197.5c-13.5,5.5-29.2,5.7-41.8-1.3c0,2,0.3,6.2,0.9,7.9c0.2,0.5,0.3,0.8,0.4,1.1
	c-0.1,0.4-0.2,0.8-0.2,1.2l-0.5,3.6c5.1-1.2,11.2-1.7,15.5,0.8l-0.2-2.8c3.1,0.1,6.4,0.1,9.4-0.1l-0.5,7.9c5,2,12.9,3.6,16.8,0.5
	l-1.4-10.2c0-0.4-0.1-0.7-0.1-1C130.6,203.8,131.5,199.1,131.6,197.5z"/>
<g>
	<polygon class="st6" points="110.7,187.7 108.5,179.9 108.6,179.9 106.5,172 102.6,176.1 106.3,178.4 105.4,179.6 	"/>
	<polygon class="st6" points="110.8,187.7 113,179.9 113,179.9 115.1,172 119,176.1 115.3,178.4 116.2,179.6 	"/>
	<polygon class="st7" points="106.8,173.2 110.7,187.7 114.7,173.2 	"/>
</g>
<g>
	<path class="st1" d="M127.4,185.1c0,0.7-0.6,1.2-1.4,1.2h-5.3c-0.7,0-1.4-0.5-1.4-1.2v-5c0-0.7,0.6-1.2,1.4-1.2h5.3
		c0.7,0,1.4,0.5,1.4,1.2V185.1z"/>
	<polygon class="st2" points="122.5,181.8 123.4,185.7 124.2,181.8 	"/>
	<rect x="119.4" y="180.8" class="st2" width="7.9" height="1.1"/>
</g>
<path class="st8" d="M90.2,224"/>
<path class="st9" d="M106.4,221.1c0,1.4-2.2,2.6-5,2.6h-7c-2.7,0-5-1.1-5-2.6v-3.5c0-1.4,2.2-2.6,5-2.6h7c2.7,0,5,1.1,5,2.6V221.1z"
	/>
<path class="st10" d="M101.2,212.2h-6.6c-2.8,0-5.1,1.5-5.1,3.4v3.3c5.4-1.5,11.3-1.7,16.8-0.5v-2.9
	C106.3,213.7,104,212.2,101.2,212.2z"/>
<rect x="126.7" y="169.4" transform="matrix(0.9611 -0.2763 0.2763 0.9611 -43.8803 42.2642)" class="st11" width="2.7" height="14.9"/>
<ellipse class="st12" cx="134.4" cy="184.9" rx="6.4" ry="6.9"/>
<path class="st3" d="M94,180.2c-0.7,2.2-2,4.4-3,7c0,0,0-0.1,0-0.1l-2,3.6c-1.2-0.6-4.7-0.2-5.8-1.1C85.5,185.2,89.8,182.7,94,180.2
	z"/>
<rect x="92.6" y="169" transform="matrix(-0.9611 -0.2763 0.2763 -0.9611 135.5714 371.9166)" class="st11" width="2.7" height="14.9"/>
<path class="st12" d="M141.9,164.9c0,2.2-1.9,3.3-4,4c-7.7,2.7-20.3,5.3-27,5.3c-6.9,0-20.3-2.7-27.3-5.3c-2.1-0.8-4-1.8-4-4
	c0-3.2,1.3-5.8,1.3-9c0-6-1.6-21.1,2.2-25.8c1.3-1.7,2-2.7,6.2-4.5c6.3-2.8,10.6-3.7,20.8-3.7c10.1,0,15.8,0.2,21.7,2
	c2.9,0.9,5,4,6.9,6.5c3.6,4.9,2,18.7,2,24.8C140.6,158.4,141.9,161.7,141.9,164.9z"/>
<path d="M139.9,153l2.8-3.5c0,0,0.8-15.6-2.6-19.5c-4.4-5-11.3-11-28.4-11c-17.1,0-26,4.1-30.8,13.6c-2.1,4.2-2.4,17.3-2.4,17.3
	l0.6,0.9l1.3-1.1l0.2,3.4l0.8,1.2l3.1-9.8l-0.1,4.9c0,0,3.8-1.5,7.5-3.1l-1.6,3.1c0,0,7.9,0.1,14.8-2l-1.2,2.3c0,0,9-1.5,15.9-6.4
	c0.9-0.7,1.7-1.3,2.4-2l5.7,8.4l1.9-3.8l-1.2-4.2l5.6,8.3l1.9-3.8l-1.1-6.6c0.1-0.1-1-1.4-0.8-1.5L139.9,153z"/>
<ellipse class="st13" cx="95.7" cy="154.4" rx="2.7" ry="5.1"/>
<ellipse class="st13" cx="125.8" cy="153.8" rx="2.7" ry="5.1"/>
<ellipse class="st12" cx="87.5" cy="184.7" rx="6.4" ry="6.9"/>
<path class="st9" d="M131.6,221.1c0,1.4-2.2,2.6-5,2.6h-7c-2.7,0-5-1.1-5-2.6v-3.5c0-1.4,2.2-2.6,5-2.6h7c2.7,0,5,1.1,5,2.6V221.1z"
	/>
<path class="st10" d="M126.4,212.2h-6.6c-2.8,0-5.1,1.5-5.1,3.4v3.3c5.4-1.5,11.3-1.7,16.8-0.5v-2.9
	C131.5,213.7,129.2,212.2,126.4,212.2z"/>
<g>
	<g>
		<path class="st14" d="M116.6,119.4l-0.1-65.9l-4.2,0l0.1,65.7C113.8,119.2,115.2,119.3,116.6,119.4z"/>
	</g>
	<path class="st14" d="M139.4,181.1l75.9-103.4l-3.4-2.5l-75.8,103.3C137.5,178.9,138.6,179.9,139.4,181.1z"/>
	<g>
		<path class="st15" d="M186.1,69.8c19.4,0,35.1,11.1,35.1,24.9C221.2,42.4,171.7,0,110.6,0S0,42.4,0,94.7
			c0-13.7,15.7-24.9,35.1-24.9c18.7,0,34,10.4,35,23.5c1.1-13.1,18.8-23.5,40.5-23.5s39.4,10.4,40.5,23.5
			C152.1,80.2,167.4,69.8,186.1,69.8z"/>
		<path class="st16" d="M70,92.9c0,0.2,0,0.3,0,0.5c1.1-13.1,18.8-23.5,40.5-23.5s39.4,10.4,40.5,23.5c0-0.2,0-0.3,0-0.5
			C150.8,41.4,132.7,0,110.6,0C88.4,0,70.4,41.4,70,92.9z"/>
	</g>
	<path class="st14" d="M87.3,177.9c0.1,0,0.2,0,0.3,0L11.2,73.8l-3.4,2.5l75.6,103C84.4,178.4,85.8,177.9,87.3,177.9z"/>
</g>
</svg>
